HIERARCHY
ROOT Pelvis
{
	OFFSET 0.000000 0.000000 0.000000
	CHANNELS 6 Xposition Yposition Zposition Xrotation Yrotation Zrotation
	JOINT LeftUpLeg_virtual
	{
		OFFSET 0.000000 0.000000 0.000000
		CHANNELS 3 Xrotation Yrotation Zrotation
		JOINT LeftUpLeg
		{
			OFFSET 8.479700 -4.795502 -0.379100
			CHANNELS 3 Xrotation Yrotation Zrotation
			JOINT LeftLeg
			{
				OFFSET 0.024144 -32.555107 0.112900
				CHANNELS 3 Xrotation Yrotation Zrotation
				JOINT LeftFoot
				{
					OFFSET -0.024144 -32.638630 -3.012600
					CHANNELS 3 Xrotation Yrotation Zrotation
					JOINT LeftToeBase
					{
						OFFSET 0.970200 -13.225400 11.864200
						CHANNELS 3 Xrotation Yrotation Zrotation
						End Site
						{
							OFFSET 0 0 0
						}
					}
				}
			}
		}
	}
	JOINT RightUpLeg_virtual
	{
		OFFSET 0.000000 0.000000 0.000000
		CHANNELS 3 Xrotation Yrotation Zrotation
		JOINT RightUpLeg
		{
			OFFSET -8.479700 -4.795502 -0.379100
			CHANNELS 3 Xrotation Yrotation Zrotation
			JOINT RightLeg
			{
				OFFSET -0.023144 -32.555092 0.112900
				CHANNELS 3 Xrotation Yrotation Zrotation
				JOINT RightFoot
				{
					OFFSET 0.023144 -32.638641 -3.012700
					CHANNELS 3 Xrotation Yrotation Zrotation
					JOINT RightToeBase
					{
						OFFSET -0.970200 -13.225400 11.864200
						CHANNELS 3 Xrotation Yrotation Zrotation
						End Site
						{
							OFFSET 0 0 0
						}
					}
				}
			}
		}
	}
	JOINT Hips_virtual
	{
		OFFSET 0.000000 0.000000 0.000000
		CHANNELS 3 Xrotation Yrotation Zrotation
		JOINT Hips
		{
			OFFSET -0.000000 -0.000000 -0.000000
			CHANNELS 3 Xrotation Yrotation Zrotation
			JOINT Spine
			{
				OFFSET 0.000000 7.722000 1.166200
				CHANNELS 3 Xrotation Yrotation Zrotation
				JOINT Spine1
				{
					OFFSET 0.000000 12.024101 0.248800
					CHANNELS 3 Xrotation Yrotation Zrotation
					JOINT Spine2
					{
						OFFSET 0.000000 11.502998 -0.491200
						CHANNELS 3 Xrotation Yrotation Zrotation
						JOINT Neck_virtual
						{
							OFFSET 0.000000 0.000000 0.000000
							CHANNELS 3 Xrotation Yrotation Zrotation
							JOINT Neck
							{
								OFFSET 0.000000 18.430702 -3.123100
								CHANNELS 3 Xrotation Yrotation Zrotation
								JOINT Head
								{
									OFFSET 0.000000 9.051102 1.034000
									CHANNELS 3 Xrotation Yrotation Zrotation
									End Site
									{
										OFFSET 0 0 0
									}
								}
							}
						}
						JOINT LeftShoulder_virtual
						{
							OFFSET 0.000000 0.000000 0.000000
							CHANNELS 3 Xrotation Yrotation Zrotation
							JOINT LeftShoulder
							{
								OFFSET 6.197800 13.665199 -4.064700
								CHANNELS 3 Xrotation Yrotation Zrotation
								JOINT LeftArm
								{
									OFFSET 7.778100 -0.187103 -1.709300
									CHANNELS 3 Xrotation Yrotation Zrotation
									JOINT LeftForeArm
									{
										OFFSET 22.049376 0.000000 0.000000
										CHANNELS 3 Xrotation Yrotation Zrotation
										JOINT LeftHand
										{
											OFFSET 23.009392 0.000000 0.000000
											CHANNELS 3 Xrotation Yrotation Zrotation
											End Site
											{
												OFFSET 0 0 0
											}
										}
									}
								}
							}
						}
						JOINT RightShoulder_virtual
						{
							OFFSET 0.000000 0.000000 0.000000
							CHANNELS 3 Xrotation Yrotation Zrotation
							JOINT RightShoulder
							{
								OFFSET -6.197800 13.665199 -4.064700
								CHANNELS 3 Xrotation Yrotation Zrotation
								JOINT RightArm
								{
									OFFSET -7.778100 -0.187103 -1.709300
									CHANNELS 3 Xrotation Yrotation Zrotation
									JOINT RightForeArm
									{
										OFFSET -22.049376 0.000000 0.000000
										CHANNELS 3 Xrotation Yrotation Zrotation
										JOINT RightHand
										{
											OFFSET -23.009392 0.000000 0.000000
											CHANNELS 3 Xrotation Yrotation Zrotation
											End Site
											{
												OFFSET 0 0 0
											}
										}
									}
								}
							}
						}
					}
				}
			}
		}
	}
}
MOTION
Frames: 11
Frame Time: 0.03333333
0.039645 66.232292 1.302347 0.000000 0.000000 0.000000 7.472113 2.017516 -2.410115 21.472851 17.555582 5.414105 22.170627 -5.235049 7.478007 -41.954201 -1.789103 -1.385779 0.000000 0.000000 0.000000 7.472113 2.017516 -2.410115 -62.323004 -2.508276 -0.733850 75.753662 -2.707587 -0.213818 -21.093595 3.201796 -4.293338 0.000000 0.000000 0.000000 7.472113 2.017516 -2.410115 0.000001 0.000000 0.000000 1.519649 -1.727829 0.857179 4.463941 -2.897044 3.069452 0.000000 0.000000 0.000000 4.470553 -2.960904 2.997961 -6.646405 2.329847 -0.789045 0.000000 0.000000 0.000000 4.470553 -2.960904 2.997961 -0.863851 7.389831 -0.025976 -11.563468 10.383920 -66.345514 -179.999937 -64.819889 -179.999937 0.000000 0.000000 0.000000 4.470553 -2.960904 2.997961 0.518559 -7.917612 14.973081 -19.108964 0.823927 54.260010 -179.999896 65.206074 179.999896 0.000000 0.000000 0.000000 
0.240976 70.010803 1.865296 0.000000 0.000000 0.000000 7.045954 5.737162 -0.879095 15.379014 13.744904 3.978536 27.317550 -1.690286 10.779481 -26.513213 -1.223859 -2.496617 0.000000 0.000000 0.000000 7.045954 5.737162 -0.879095 -55.565532 -2.314251 -3.285158 67.128308 -4.377356 -0.617562 -18.680986 3.157624 -4.839458 0.000000 0.000000 0.000000 7.045954 5.737162 -0.879095 0.000000 0.000000 0.000000 2.286769 -2.030827 1.208052 3.099218 -3.162404 2.168580 0.000000 0.000000 0.000000 3.091624 -3.180354 2.120447 -5.647363 2.000596 -1.393997 0.000000 0.000000 0.000000 3.091624 -3.180354 2.120447 -0.472603 4.837149 -0.286772 -18.246980 6.118547 -64.201121 -179.999950 -68.040726 -179.999964 0.000000 0.000000 0.000000 3.091624 -3.180354 2.120447 0.323428 -7.582996 12.788914 -22.735697 4.589337 55.000515 -179.999964 65.453156 179.999964 0.000000 0.000000 0.000000 
0.583822 74.167740 1.667688 0.000000 0.000000 0.000000 5.838221 9.184327 -0.007333 3.871870 9.893482 3.864936 35.621308 4.842090 12.333130 4.393492 -1.504590 -4.485457 0.000000 0.000000 0.000000 5.838221 9.184327 -0.007333 -47.612532 -2.596545 -4.564139 55.605601 -6.436839 -1.360157 -13.142864 3.073811 -5.461532 0.000000 0.000000 0.000000 5.838221 9.184327 -0.007333 0.000001 0.000001 -0.000000 4.126416 -1.834832 2.380466 2.040740 -3.016033 1.391132 0.000000 0.000000 0.000000 2.006036 -2.989533 1.398627 -4.440903 1.612599 -2.281644 0.000000 0.000000 0.000000 2.006036 -2.989533 1.398627 0.068468 1.355724 -0.866199 -25.917132 -0.435045 -62.080662 179.999991 -72.913991 -179.999991 0.000000 0.000000 0.000000 2.006036 -2.989533 1.398627 0.210348 -5.995286 10.576171 -27.995668 7.628514 54.628744 -179.999937 66.269145 179.999923 0.000000 0.000000 0.000000 
0.874674 77.653854 1.029802 0.000000 0.000000 0.000000 4.285198 12.323512 0.112645 -0.216111 7.758736 4.490582 33.547888 2.602245 6.153499 32.376452 -0.559487 4.013075 0.000000 0.000000 0.000000 4.285198 12.323512 0.112645 -41.090872 -2.600325 -4.953739 44.664868 -10.009635 -2.428056 -2.637097 2.460734 -3.094016 0.000000 0.000000 0.000000 4.285198 12.323512 0.112645 0.000000 0.000000 0.000000 5.834622 -1.382130 3.748632 1.949363 -2.659791 0.899520 0.000000 0.000000 0.000000 1.896970 -2.616142 0.938718 -3.296966 1.144834 -3.044797 0.000000 0.000000 0.000000 1.896970 -2.616142 0.938718 0.568132 -2.178354 -0.868055 -35.106704 -7.404368 -61.207067 179.999868 -78.716762 179.999841 0.000000 0.000000 0.000000 1.896970 -2.616142 0.938718 0.207307 -3.936309 8.797186 -35.419128 9.963637 52.813434 -179.999841 68.060772 179.999855 0.000000 0.000000 0.000000 
0.941101 79.954170 0.458031 0.000000 0.000000 0.000000 2.993401 14.281168 -0.155485 -12.037573 6.265035 5.272925 49.924093 4.101294 3.460386 40.966382 -0.421715 2.608763 0.000000 0.000000 0.000000 2.993401 14.281168 -0.155485 -36.925027 -2.646458 -4.891875 36.401466 -10.476954 -3.330533 10.498100 -2.055360 2.149984 0.000000 0.000000 0.000000 2.993401 14.281168 -0.155485 0.000000 0.000000 0.000000 6.455056 -0.682936 4.845807 2.978381 -2.041431 0.410065 0.000000 0.000000 0.000000 2.915022 -2.015024 0.447750 -2.420707 0.649268 -3.417442 0.000000 0.000000 0.000000 2.915022 -2.015024 0.447750 1.014100 -5.352210 0.544284 -45.652230 -13.589410 -61.251525 179.999172 -84.906573 179.999158 0.000000 0.000000 0.000000 2.915022 -2.015024 0.447750 0.089341 -4.052606 7.037431 -44.633613 13.795999 52.404770 -179.999855 72.352535 179.999855 0.000000 0.000000 0.000000 
0.765565 81.455933 0.175028 0.000000 0.000000 0.000000 2.400328 14.301667 -0.592301 -24.375851 6.718896 6.371469 66.270921 4.600992 0.719013 42.292982 -0.520592 1.907208 0.000000 0.000000 0.000000 2.400328 14.301667 -0.592301 -33.758169 -3.412263 -4.362399 29.382323 -9.675331 -2.541850 20.933937 -0.355490 4.485975 0.000000 0.000000 0.000000 2.400328 14.301667 -0.592301 0.000000 0.000000 0.000000 6.244885 0.178861 4.770750 4.448039 -1.372284 0.550577 0.000000 0.000000 0.000000 4.392859 -1.358244 0.586388 -1.596935 0.485278 -3.771821 0.000000 0.000000 0.000000 4.392859 -1.358244 0.586388 1.219302 -6.840146 2.759381 -56.339608 -18.196324 -62.362701 0.002865 -88.669837 0.002942 0.000000 0.000000 0.000000 4.392859 -1.358244 0.586388 -0.418004 -6.889079 3.645292 -55.571382 19.095901 56.081293 -179.998994 80.569226 179.998980 0.000000 0.000000 0.000000 
0.397611 82.033669 0.004951 0.000000 0.000000 0.000000 1.618540 13.042770 -0.968074 -36.141645 8.122236 7.953795 80.278383 5.282757 -0.848157 41.372467 -0.462619 2.090482 0.000000 0.000000 0.000000 1.618540 13.042770 -0.968074 -31.839644 -4.322160 -1.348655 26.849661 -4.508581 -1.360992 23.478943 2.308848 -0.062596 0.000000 0.000000 0.000000 1.618540 13.042770 -0.968074 0.000000 -0.000001 0.000000 7.076650 0.977191 3.690247 5.162423 -0.950532 1.327612 0.000000 0.000000 0.000000 5.114986 -0.892415 1.373417 -0.006642 0.754128 -4.132363 0.000000 0.000000 0.000000 5.114986 -0.892415 1.373417 1.174589 -6.511879 5.488877 -66.383380 -19.791071 -64.668614 -0.000487 -82.740959 -0.000530 0.000000 0.000000 0.000000 5.114986 -0.892415 1.373417 -1.198276 -9.446106 -1.192410 -68.157638 22.444241 62.195102 0.000757 87.962311 -0.000756 0.000000 0.000000 0.000000 
-0.029204 81.511452 0.027919 0.000000 0.000000 0.000000 -0.291989 11.771951 -0.989001 -46.429498 9.447729 9.211991 92.115141 6.207839 -0.980395 39.978504 -0.159274 3.256196 0.000000 0.000000 0.000000 -0.291989 11.771951 -0.989001 -31.043169 -4.222212 2.058068 30.766041 1.981284 -1.607743 20.842628 2.062944 -2.048527 0.000000 0.000000 0.000000 -0.291989 11.771951 -0.989001 0.000000 0.000000 0.000000 9.582217 1.364223 2.383481 4.813437 -0.918600 1.966179 0.000000 0.000000 0.000000 4.770643 -0.770863 2.017520 2.727761 1.227603 -4.117913 0.000000 0.000000 0.000000 4.770643 -0.770863 2.017520 1.292848 -7.411986 7.174130 -74.254688 -19.742220 -64.317958 -0.000132 -78.191726 -0.000150 0.000000 0.000000 0.000000 4.770643 -0.770863 2.017520 -1.509833 -6.959347 -7.781836 -77.718209 19.877717 64.551517 0.000401 77.932240 -0.000423 0.000000 0.000000 0.000000 
-0.349956 80.057983 0.436517 0.000000 0.000000 0.000000 -2.930242 11.486409 -0.717915 -55.137546 10.118763 9.248255 101.920493 7.166456 -0.272764 38.372115 0.331081 5.268781 0.000000 0.000000 0.000000 -2.930242 11.486409 -0.717915 -30.904284 -4.517599 2.922536 38.760729 1.657387 -1.442913 13.529122 2.165612 -3.108359 0.000000 0.000000 0.000000 -2.930242 11.486409 -0.717915 0.000000 -0.000001 0.000000 12.369368 1.215393 1.427734 4.378284 -1.227937 2.184095 0.000000 0.000000 0.000000 4.349978 -0.997348 2.245316 5.525318 1.671869 -3.855086 0.000000 0.000000 0.000000 4.349978 -0.997348 2.245316 1.681141 -8.837519 10.762812 -80.175219 -17.035118 -63.387113 0.000120 -76.684296 0.000108 0.000000 0.000000 0.000000 4.349978 -0.997348 2.245316 -1.466470 -3.826230 -15.559798 -83.463675 13.436027 64.734996 0.000129 73.211391 -0.000132 0.000000 0.000000 0.000000 
-0.497378 78.096603 1.282207 0.000000 0.000000 0.000000 -5.277246 12.147469 -0.542473 -62.457190 9.501564 8.094753 109.534917 8.092213 0.625421 37.558732 0.644711 6.544285 0.000000 0.000000 0.000000 -5.277246 12.147469 -0.542473 -27.545378 -6.032327 1.638500 43.715967 1.269216 0.405427 -2.221838 2.583911 -4.057308 0.000000 0.000000 0.000000 -5.277246 12.147469 -0.542473 0.000000 0.000001 0.000000 13.953405 0.870415 0.961925 4.528583 -1.595764 2.084646 0.000000 0.000000 0.000000 4.519718 -1.316296 2.156809 7.678618 1.823751 -3.265412 0.000000 0.000000 0.000000 4.519718 -1.316296 2.156809 1.694805 -8.154511 15.786881 -84.872743 -12.975886 -64.863602 0.000004 -78.779614 -0.000007 0.000000 0.000000 0.000000 4.519718 -1.316296 2.156809 -2.354559 -5.768610 -20.661409 -88.017492 8.608127 67.413066 0.000108 73.093993 -0.000101 0.000000 0.000000 0.000000 
-0.499539 75.560211 2.327404 0.000000 0.000000 0.000000 -7.247639 12.402757 -0.040003 -68.498103 8.422799 6.709770 115.640594 7.798961 1.394727 37.451034 1.802010 6.696590 0.000000 0.000000 0.000000 -7.247639 12.402757 -0.040003 -26.983610 -7.024592 1.153042 51.149606 1.082815 1.109989 -14.458308 3.480594 -7.051647 0.000000 0.000000 0.000000 -7.247639 12.402757 -0.040003 0.000000 0.000001 0.000000 14.905199 0.682894 0.231965 4.517215 -1.688271 1.794077 0.000000 0.000000 0.000000 4.516827 -1.391461 1.872304 9.104285 1.676372 -2.410452 0.000000 0.000000 0.000000 4.516827 -1.391461 1.872304 1.043107 -5.624975 19.137895 -87.822572 -10.431761 -68.173375 0.000408 -82.383638 0.000399 0.000000 0.000000 0.000000 4.516827 -1.391461 1.872304 -3.434370 -8.885741 -23.009316 -91.015693 5.975826 69.995068 -0.000001 75.624756 -0.000003 0.000000 0.000000 0.000000 
